<svg width="130" height="32" viewBox="0 0 130 32" fill="none" xmlns="http://www.w3.org/2000/svg"><path fill-rule="evenodd" clip-rule="evenodd" d="M16.6842 8.97486C17.9586 8.97486 18.9941 10.0107 18.9941 11.2856C18.9941 12.5605 17.9586 13.5963 16.6842 13.5963C15.4098 13.5963 14.3743 12.5605 14.3743 11.2856C14.3743 10.0107 15.4098 8.97486 16.6842 8.97486Z" fill="#DC2626"></path><path d="M28.3205 28.4457C31.4269 25.4759 33.2009 21.0645 33.2009 16.5445C33.2009 7.41748 25.7789 0 16.6626 0C7.54627 0 1.21046 7.03357 0.261893 14.6973C2.02868 8.04043 8.66861 3.07854 14.6351 3.07854C21.1592 3.07854 24.5697 6.08465 27.0099 10.4308C28.0671 12.22 28.6681 14.3062 28.6681 16.5445C28.6681 20.9558 26.6189 25.0412 22.4771 26.9246L22.4264 26.9463H22.4047L22.3322 26.9825C21.5719 27.3085 20.1889 27.8445 19.5517 27.3882C20.4786 29.7279 22.955 30.8506 28.3205 28.4457Z" fill="#DC2626"></path><path d="M1.72449 9.52541C-1.07775 15.3203 -0.730188 22.6581 4.74395 28.2719C5.16393 28.8224 5.82285 29.1701 6.56867 29.1629C7.82859 29.1556 8.84232 28.1271 8.83508 26.8667C8.82784 26.1423 8.48751 25.4904 7.95169 25.0775C-0.708466 16.1316 8.49476 1.08658 20.5219 5.17199C24.7 6.59174 27.5818 10.0759 28.4218 14.0961C27.5094 9.1922 25.2503 5.25167 19.0738 3.15102C13.4258 1.23145 5.54046 3.78845 1.72449 9.52541Z" fill="#DC2626"></path><path d="M21.8977 31.814H21.9411L22.0642 31.7778C23.2517 31.5243 24.3596 31.1114 25.3806 30.5681L25.4964 30.5101C26.5536 29.9307 27.5166 29.2208 28.3711 28.395C23.1214 30.7492 19.1389 30.2059 18.9868 24.0923V16.9646C18.9868 16.2837 18.7696 15.7042 18.3206 15.2188C17.43 14.2772 15.9891 14.2772 15.1057 15.2188C14.664 15.7042 14.4467 16.2837 14.4467 16.9646V24.2009C14.4467 24.4617 14.4467 24.7152 14.4467 24.9615V25.0919C14.5698 28.4747 15.9022 30.5174 17.9007 31.488C19.0737 32.053 20.406 32.1327 21.8977 31.814Z" fill="#DC2626"></path><path fill-rule="evenodd" clip-rule="evenodd" d="M42.2122 3.66866C43.3546 3.66866 44.2764 4.58807 44.2764 5.72751C44.2764 6.86695 43.3546 7.78636 42.2122 7.78636C41.0698 7.78636 40.1481 6.86695 40.1481 5.72751C40.1481 4.59593 41.0698 3.66866 42.2122 3.66866Z" fill="#DC2626"></path><path d="M42.1886 27.369C41.4559 27.369 40.8886 27.149 40.5026 26.7089C40.1087 26.2688 39.9117 25.6559 39.9117 24.8779V11.4325C39.9117 9.77446 40.668 8.94149 42.1886 8.94149C43.7091 8.94149 44.5048 9.77446 44.5048 11.4325V24.8779C44.5048 25.6638 44.3079 26.2688 43.9139 26.7089C43.5279 27.149 42.9528 27.369 42.1886 27.369Z" fill="#DC2626"></path><path d="M50.3506 27.4083C48.7828 27.4083 48.0028 26.6303 48.0028 25.0665V11.2125C48.0028 9.6723 48.7513 8.90219 50.2403 8.90219C51.7293 8.90219 52.4778 9.6723 52.4778 11.2125V12.3441C53.3602 10.2459 55.2431 9.07508 58.1345 8.82361C59.1902 8.69788 59.7732 9.30296 59.8993 10.6153C60.0253 11.9119 59.3872 12.627 57.9927 12.7763L57.1812 12.847C54.1716 13.1378 52.659 14.678 52.659 17.4598V25.043C52.659 26.6225 51.8869 27.4083 50.3506 27.4083Z" fill="#DC2626"></path><path d="M63.4682 27.4083C61.9004 27.4083 61.1204 26.6303 61.1204 25.0665V11.2125C61.1204 9.6723 61.8689 8.90219 63.3579 8.90219C64.8469 8.90219 65.5954 9.6723 65.5954 11.2125V12.3441C66.4778 10.2459 68.3607 9.07508 71.2521 8.82361C72.3078 8.69788 72.8908 9.30296 73.0169 10.6153C73.1429 11.9119 72.5048 12.627 71.1103 12.7763L70.2988 12.847C67.2892 13.1378 65.7845 14.678 65.7845 17.4598V25.043C65.7845 26.6225 65.0045 27.4083 63.4682 27.4083Z" fill="#DC2626"></path><path d="M82.1322 23.9978C83.5031 23.9978 84.606 23.5028 85.4412 22.5126C86.2763 21.5225 86.6938 20.0609 86.6938 18.1356C86.6938 16.2104 86.2763 14.7251 85.4412 13.7586C84.606 12.792 83.5031 12.3127 82.1322 12.3127C80.7614 12.3127 79.6584 12.792 78.8233 13.7586C77.9882 14.7251 77.5785 16.1789 77.5785 18.1356C77.5785 20.0923 77.996 21.5225 78.8233 22.5126C79.6584 23.5028 80.7614 23.9978 82.1322 23.9978ZM82.1322 27.479C80.2729 27.479 78.6578 27.1018 77.287 26.3396C75.9161 25.5852 74.8525 24.5008 74.0883 23.0941C73.332 21.6875 72.946 20.0373 72.946 18.1278C72.946 16.2182 73.3241 14.5758 74.0883 13.1849C74.8447 11.794 75.9161 10.7175 77.287 9.96307C78.6578 9.20868 80.2729 8.82363 82.1322 8.82363C83.9915 8.82363 85.6066 9.20083 86.9774 9.96307C88.3483 10.7175 89.4119 11.794 90.1761 13.1849C90.9324 14.5758 91.3185 16.2261 91.3185 18.1278C91.3185 20.0294 90.9403 21.6875 90.1761 23.0941C89.4198 24.5008 88.3483 25.5773 86.9774 26.3396C85.6066 27.1018 83.9915 27.479 82.1322 27.479Z" fill="#DC2626"></path><path d="M102.884 23.9978C104.255 23.9978 105.358 23.5027 106.193 22.5126C107.028 21.5225 107.446 20.0608 107.446 18.1356C107.446 16.2103 107.028 14.7251 106.193 13.7586C105.358 12.792 104.255 12.3126 102.884 12.3126C101.513 12.3126 100.41 12.792 99.5751 13.7586C98.74 14.7251 98.3224 16.1789 98.3224 18.1356C98.3224 20.0923 98.74 21.5225 99.5751 22.5126C100.41 23.5027 101.513 23.9978 102.884 23.9978ZM104.168 27.479C102.845 27.479 101.671 27.1882 100.639 26.6146C99.6066 26.0409 98.8424 25.263 98.3224 24.2886V25.0587C98.3224 26.6225 97.574 27.4004 96.0849 27.4004C94.5959 27.4004 93.8081 26.6225 93.8081 25.0587V3.29928C93.8081 1.75907 94.5644 0.988962 96.0849 0.988962C97.6055 0.988962 98.4012 1.75907 98.4012 3.29928V11.8333C98.9369 10.9296 99.7169 10.2066 100.733 9.65657C101.75 9.1065 102.892 8.83146 104.168 8.83146C105.76 8.83146 107.146 9.20865 108.32 9.9709C109.494 10.7253 110.416 11.794 111.078 13.1771C111.739 14.5601 112.07 16.2103 112.07 18.1434C112.07 20.0766 111.739 21.7032 111.078 23.1098C110.416 24.5165 109.494 25.593 108.304 26.3553C107.115 27.1018 105.736 27.479 104.168 27.479Z" fill="#DC2626"></path><path d="M121.438 24.3279C122.635 24.3279 123.636 23.9114 124.432 23.0784C125.227 22.2454 125.629 21.2003 125.629 19.9273V19.1179H124.376C122.076 19.1179 120.477 19.2907 119.586 19.6522C118.696 20.0058 118.247 20.6502 118.247 21.5775C118.247 22.3869 118.531 23.047 119.09 23.5577C119.649 24.0685 120.437 24.3279 121.438 24.3279ZM120.484 27.479C119.184 27.479 118.026 27.2275 117.01 26.7246C115.994 26.2217 115.198 25.5459 114.623 24.6893C114.048 23.8328 113.756 22.8662 113.756 21.7975C113.756 20.4773 114.103 19.4322 114.788 18.6621C115.474 17.892 116.585 17.334 118.129 16.9961C119.673 16.6504 121.737 16.4854 124.337 16.4854H125.621V15.7153C125.621 14.4972 125.353 13.6171 124.81 13.0749C124.274 12.5405 123.368 12.2655 122.092 12.2655C121.383 12.2655 120.618 12.3519 119.799 12.5248C118.98 12.6977 118.113 12.9885 117.207 13.4049C116.616 13.6721 116.128 13.7035 115.734 13.4992C115.34 13.2949 115.08 12.9649 114.946 12.5091C114.812 12.0612 114.836 11.5975 115.017 11.1339C115.198 10.6703 115.576 10.3245 116.136 10.1123C117.262 9.64871 118.349 9.31867 119.389 9.12221C120.429 8.92576 121.383 8.83146 122.233 8.83146C124.857 8.83146 126.803 9.43654 128.071 10.6467C129.348 11.8569 129.978 13.7271 129.978 16.2732V25.0665C129.978 26.6303 129.269 27.4083 127.851 27.4083C126.433 27.4083 125.684 26.6303 125.684 25.0665V24.2571C125.267 25.2551 124.605 26.0488 123.699 26.6225C122.809 27.1961 121.737 27.479 120.484 27.479Z" fill="#DC2626"></path></svg>